Coordinates
version=1
nRows=8
nColumns=36
inDegrees=yes

Units are S.I. units (second, meters, Newtons, ...)
If the header above contains a line with 'inDegrees', this indicates whether rotational values are in degrees (yes) or radians (no).

endheader
time	pelvis_tilt	pelvis_list	pelvis_rotation	pelvis_tx	pelvis_ty	pelvis_tz	hip_flexion_r	hip_adduction_r	hip_rotation_r	knee_angle_r	knee_angle_r_beta	ankle_angle_r	subtalar_angle_r	mtp_angle_r	hip_flexion_l	hip_adduction_l	hip_rotation_l	knee_angle_l	knee_angle_l_beta	ankle_angle_l	subtalar_angle_l	mtp_angle_l	lumbar_extension	lumbar_bending	lumbar_rotation	arm_flex_r	arm_add_r	arm_rot_r	elbow_flex_r	pro_sup_r	arm_flex_l	arm_add_l	arm_rot_l	elbow_flex_l	pro_sup_l
      0.00000000	     17.20168097	     -0.49395361	     -0.18205022	     -0.66404102	      0.58694996	     -0.63553495	     78.06307941	    -11.51205402	      0.12536882	     94.70646111	      1.65293957	      1.64017330	     -3.43474516	     -3.82935555	     77.58898099	     -3.74728556	      6.26948169	     99.19656211	      1.73130662	      5.09779924	     -6.88559776	     -3.82935555	    -30.87560382	      1.23882875	     -2.20292411	     -2.06572087	    -11.01101759	      2.11054671	    120.50276800	     95.61080409	     -5.84929708	     -4.42021905	     -0.59531010	    124.72345455	     81.58481972
      0.01000000	     17.24031871	     -0.49383707	     -0.20460147	     -0.66412106	      0.58697088	     -0.63542364	     78.04498435	    -11.46275731	      0.18084186	     94.70193802	      1.65286063	      1.60345358	     -3.38624740	     -3.90607090	     77.56440705	     -3.77093847	      6.28843551	     99.21143523	      1.73156620	      5.06527255	     -6.81781830	     -3.90607090	    -30.90433993	      1.21485310	     -2.19140849	     -1.81866905	    -10.96090117	      2.08239902	    120.33804978	     95.28071220	     -5.67088502	     -4.41953439	     -0.55933203	    124.53484478	     81.34613673
      0.02000000	     17.23842087	     -0.49693382	     -0.20565968	     -0.66408489	      0.58698382	     -0.63538011	     78.05181693	    -11.47398329	      0.16172554	     94.70553542	      1.65292341	      1.55596564	     -3.37880120	     -3.96502432	     77.56738036	     -3.78875725	      6.27411819	     99.21091155	      1.73155706	      5.07132952	     -6.88604139	     -3.96502432	    -30.92797759	      1.21486436	     -2.20961074	     -1.67272496	    -10.90274301	      2.05099688	    120.33712984	     95.19336620	     -5.68451771	     -4.45237501	     -0.49919693	    124.58208372	     81.09115164
      0.03000000	     17.19529115	     -0.49747721	     -0.19200912	     -0.66408189	      0.58693547	     -0.63539657	     78.08664912	    -11.47412143	      0.17865487	     94.69418712	      1.65272535	      1.57156451	     -3.32083077	     -4.09800801	     77.60781528	     -3.76003001	      6.28900684	     99.20025469	      1.73137106	      5.14078502	     -6.88677169	     -4.09800801	    -30.89301909	      1.22600021	     -2.23403796	     -1.51576753	    -10.85842552	      2.02006868	    120.30256981	     94.83217127	     -5.61619193	     -4.49182716	     -0.53860243	    124.55814259	     80.94973404
      0.04000000	     17.21506034	     -0.50106386	     -0.19255620	     -0.66410034	      0.58695452	     -0.63540485	     78.07045195	    -11.48493851	      0.17133499	     94.70045083	      1.65283467	      1.53241604	     -3.30291607	     -4.16759310	     77.59111836	     -3.76964123	      6.28067662	     99.20443041	      1.73144394	      5.08862486	     -6.90119724	     -4.16759310	    -30.92674046	      1.22539978	     -2.23266523	     -1.32235434	    -10.81552921	      1.97843059	    120.20223766	     94.67711510	     -5.51374124	     -4.49833218	     -0.54995237	    124.54488186	     80.65755971
      0.05000000	     17.21797781	     -0.51355480	     -0.18807524	     -0.66410211	      0.58691988	     -0.63539719	     78.07408479	    -11.47763903	      0.17062334	     94.70106796	      1.65284544	      1.52281394	     -3.27767819	     -4.23998348	     77.59646508	     -3.77194586	      6.29469974	     99.20919912	      1.73152717	      5.07912416	     -6.88730457	     -4.23998348	    -30.94147409	      1.23495878	     -2.23781149	     -1.13654314	    -10.77852682	      1.94673716	    120.14057318	     94.45855447	     -5.41871216	     -4.51591276	     -0.57101492	    124.51598398	     80.45028366
      0.06000000	     17.21069669	     -0.51844690	     -0.18637724	     -0.66411397	      0.58687802	     -0.63538671	     78.08455546	    -11.46750021	      0.15916552	     94.70410641	      1.65289847	      1.53825683	     -3.30149654	     -4.35462832	     77.60425686	     -3.77389479	      6.30335086	     99.20814882	      1.73150884	      5.09950615	     -6.88211437	     -4.35462832	    -30.95028532	      1.23954812	     -2.25225498	     -0.95304236	    -10.73307218	      1.92465167	    120.09356138	     94.12188552	     -5.34112114	     -4.54748603	     -0.64903293	    124.52317364	     80.19048063
      0.07000000	     17.21950974	     -0.51051938	     -0.18730553	     -0.66414580	      0.58686654	     -0.63539209	     78.08213569	    -11.47859415	      0.13785477	     94.71479292	      1.65308499	      1.53448566	     -3.34455533	     -4.43844608	     77.59252930	     -3.76805060	      6.29462049	     99.20526493	      1.73145851	      5.08858597	     -6.88914923	     -4.43844608	    -30.97593734	      1.22991815	     -2.24737961	     -0.76696186	    -10.69005872	      1.89170652	    120.02718443	     93.85681912	     -5.23043989	     -4.57263297	     -0.71734393	    124.55285784	     79.91685920
